<svg width="271" height="321" viewBox="0 0 271 321" fill="none" xmlns="http://www.w3.org/2000/svg">
<path d="M166.286 38.8565C83.8434 29.5966 26.2746 110.264 39.7033 187.229C45.5229 220.764 86.6878 241.159 115.843 249.917C150.931 260.679 171.301 261.26 205.439 244.214C228.617 232.681 252.22 214.021 255.054 186.52C257.211 165.515 249.755 133.372 234.709 117.833C209.233 91.85 154.488 88.64 128.129 115C111.71 131.499 115.486 154.507 121.148 174.925C126.49 193.641 160.45 207.054 175.416 189.676C179.441 185.126 182.315 174.083 178.518 168.291C172.948 159.917 166.718 165.355 159.088 165.5C142.944 165.413 134.763 146.01 145.008 132.364C173.734 93.7014 235.304 129.308 229.29 171.637C222.846 219.263 158.307 233.545 119.5 223.549C86.0572 215.053 71.7548 194.088 67.9521 160.108C65.0464 131.99 69.928 90.4839 94.9832 72.7032C114.688 58.9084 134.432 61.5723 156.307 58.6186C165.386 57.5247 179.687 52.13 166.286 38.8565Z" fill="#C096F5"/>
<path d="M255.19 137.775C261.617 135.553 287.705 127.607 281.624 142.504C278.614 149.574 268.666 155.778 263.442 160.079C264.068 157.996 255.641 141.621 255.19 137.775Z" fill="#FEC72F"/>
<path d="M262.634 217.15C267.25 222.246 284.138 243.268 268.436 243.369C260.806 243.514 251.015 236.474 245.205 232.957C247.348 232.826 259.296 218.86 262.634 217.15Z" fill="#FEC72F"/>
<path d="M266.449 177.538C272.696 179.415 296.864 185.789 292.599 195.195C290.718 199.614 270.623 208.806 265.57 205.35C261.969 202.774 265.456 184.162 266.449 177.538Z" fill="#FEC72F"/>
<path d="M236.135 239.54C237.597 244.076 244.194 260.456 236.884 262.303C233.48 262.941 219.651 254.966 219.83 250.867C219.506 247.336 231.852 241.631 236.135 239.54Z" fill="#FEC72F"/>
</svg>
