<svg width="24" height="24" viewBox="0 0 24 24" fill="none" xmlns="http://www.w3.org/2000/svg">
<path d="M11.9998 8.74976C11.1378 8.74976 10.3112 9.09217 9.70166 9.70166C9.09217 10.3112 8.74976 11.1378 8.74976 11.9998C8.74976 12.8617 9.09217 13.6884 9.70166 14.2979C10.3112 14.9073 11.1378 15.2498 11.9998 15.2498C12.8617 15.2498 13.6884 14.9073 14.2979 14.2979C14.9073 13.6884 15.2498 12.8617 15.2498 11.9998C15.2498 11.1378 14.9073 10.3112 14.2979 9.70166C13.6884 9.09217 12.8617 8.74976 11.9998 8.74976Z" fill="white"/>
<path fill-rule="evenodd" clip-rule="evenodd" d="M6.77007 3.08219C10.2461 2.69689 13.754 2.69689 17.2301 3.08219C19.1291 3.29419 20.6601 4.78919 20.8831 6.69519C21.2953 10.2198 21.2953 13.7805 20.8831 17.3052C20.6601 19.2112 19.1291 20.7062 17.2311 20.9192C13.7547 21.3046 10.2464 21.3046 6.77007 20.9192C4.87107 20.7062 3.34007 19.2112 3.11707 17.3062C2.70479 13.7812 2.70479 10.2202 3.11707 6.69519C3.34007 4.78919 4.87107 3.29419 6.77007 3.08219ZM17.0001 6.00019C16.7348 6.00019 16.4805 6.10554 16.293 6.29308C16.1054 6.48062 16.0001 6.73497 16.0001 7.00019C16.0001 7.2654 16.1054 7.51976 16.293 7.70729C16.4805 7.89483 16.7348 8.00019 17.0001 8.00019C17.2653 8.00019 17.5196 7.89483 17.7072 7.70729C17.8947 7.51976 18.0001 7.2654 18.0001 7.00019C18.0001 6.73497 17.8947 6.48062 17.7072 6.29308C17.5196 6.10554 17.2653 6.00019 17.0001 6.00019ZM7.25007 12.0002C7.25007 10.7404 7.75051 9.53223 8.64131 8.64143C9.53211 7.75063 10.7403 7.25019 12.0001 7.25019C13.2598 7.25019 14.468 7.75063 15.3588 8.64143C16.2496 9.53223 16.7501 10.7404 16.7501 12.0002C16.7501 13.26 16.2496 14.4681 15.3588 15.3589C14.468 16.2497 13.2598 16.7502 12.0001 16.7502C10.7403 16.7502 9.53211 16.2497 8.64131 15.3589C7.75051 14.4681 7.25007 13.26 7.25007 12.0002Z" fill="white"/>
</svg>
