<svg width="40" height="40" viewBox="0 0 40 40" fill="none" xmlns="http://www.w3.org/2000/svg">
<rect width="40" height="40" rx="20" fill="black"/>
<path d="M24.0006 16.4001L15.1256 25.3001C14.9256 25.5001 14.688 25.6001 14.4126 25.6001C14.1373 25.6001 13.9 25.5001 13.7006 25.3001C13.5006 25.1001 13.4006 24.8625 13.4006 24.5871C13.4006 24.3118 13.5006 24.0745 13.7006 23.8751L22.6006 15.0001H15.0006C14.7173 15.0001 14.4796 14.9041 14.2876 14.7121C14.0956 14.5201 14 14.2828 14.0006 14.0001C14.0006 13.7168 14.0966 13.4791 14.2886 13.2871C14.4806 13.0951 14.718 12.9995 15.0006 13.0001H25.0006C25.284 13.0001 25.5216 13.0961 25.7136 13.2881C25.9056 13.4801 26.0013 13.7175 26.0006 14.0001V24.0001C26.0006 24.2835 25.9046 24.5211 25.7126 24.7131C25.5206 24.9051 25.2833 25.0008 25.0006 25.0001C24.7173 25.0001 24.4796 24.9041 24.2876 24.7121C24.0956 24.5201 24 24.2828 24.0006 24.0001V16.4001Z" fill="white"/>
</svg>
