<svg width="24" height="24" viewBox="0 0 24 24" fill="none" xmlns="http://www.w3.org/2000/svg">
<path fill-rule="evenodd" clip-rule="evenodd" d="M9.42876 8.96876H13.1428V10.8188C13.6778 9.75476 15.0498 8.79876 17.1108 8.79876C21.0618 8.79876 21.9998 10.9168 21.9998 14.8028V21.9998H17.9998V15.6878C17.9998 13.4748 17.4648 12.2268 16.1028 12.2268C14.2138 12.2268 13.4288 13.5718 13.4288 15.6868V21.9998H9.42876V8.96876ZM2.56976 21.8298H6.56976V8.79876H2.56976V21.8298ZM7.14276 4.54976C7.1429 4.88503 7.07641 5.21699 6.94714 5.52634C6.81787 5.8357 6.62841 6.11627 6.38976 6.35176C5.90616 6.83238 5.25157 7.10141 4.56976 7.09976C3.88915 7.0993 3.23607 6.83096 2.75176 6.35276C2.51397 6.11647 2.32514 5.83558 2.1961 5.52619C2.06706 5.2168 2.00033 4.88498 1.99976 4.54976C1.99976 3.87276 2.26976 3.22476 2.75276 2.74676C3.23664 2.26791 3.89 1.99946 4.57076 1.99976C5.25276 1.99976 5.90676 2.26876 6.38976 2.74676C6.87176 3.22476 7.14276 3.87276 7.14276 4.54976Z" fill="white"/>
</svg>
