<svg width="20" height="20" viewBox="0 0 20 20" fill="none" xmlns="http://www.w3.org/2000/svg">
<path d="M9.7607 1.12397C9.78334 0.828407 10.2167 0.828405 10.2393 1.12396L10.494 4.4486C10.5138 4.70753 10.8735 4.75488 10.9597 4.50991L12.0661 1.36447C12.1645 1.08484 12.5831 1.19699 12.5284 1.48834L11.9139 4.76561C11.8661 5.02084 12.2013 5.15968 12.3479 4.94536L14.2308 2.19348C14.3982 1.94884 14.7734 2.16549 14.6453 2.43278L13.2035 5.43933C13.0912 5.67348 13.379 5.89434 13.5761 5.72528L16.1071 3.55449C16.3321 3.3615 16.6385 3.6679 16.4455 3.8929L14.2747 6.42386C14.1057 6.62097 14.3265 6.9088 14.5607 6.79651L17.5672 5.35474C17.8345 5.22657 18.0512 5.60183 17.8065 5.76922L15.0546 7.65209C14.8403 7.79873 14.9792 8.13391 15.2344 8.08605L18.5117 7.47157C18.803 7.41694 18.9152 7.83549 18.6355 7.93386L15.4901 9.04033C15.2451 9.1265 15.2925 9.4862 15.5514 9.50603L18.876 9.7607C19.1716 9.78334 19.1716 10.2167 18.876 10.2393L15.5514 10.494C15.2925 10.5138 15.2451 10.8735 15.4901 10.9597L18.6355 12.0661C18.9152 12.1645 18.803 12.5831 18.5117 12.5284L15.2344 11.9139C14.9792 11.8661 14.8403 12.2013 15.0546 12.3479L17.8065 14.2308C18.0512 14.3982 17.8345 14.7734 17.5672 14.6453L14.5607 13.2035C14.3265 13.0912 14.1057 13.379 14.2747 13.5761L16.4455 16.1071C16.6385 16.3321 16.3321 16.6385 16.1071 16.4455L13.5761 14.2747C13.379 14.1057 13.0912 14.3265 13.2035 14.5607L14.6453 17.5672C14.7734 17.8345 14.3982 18.0512 14.2308 17.8065L12.3479 15.0546C12.2013 14.8403 11.8661 14.9792 11.9139 15.2344L12.5284 18.5117C12.5831 18.803 12.1645 18.9152 12.0661 18.6355L10.9597 15.4901C10.8735 15.2451 10.5138 15.2925 10.494 15.5514L10.2393 18.876C10.2167 19.1716 9.78334 19.1716 9.7607 18.876L9.50603 15.5514C9.4862 15.2925 9.1265 15.2451 9.04033 15.4901L7.93386 18.6355C7.83549 18.9152 7.41694 18.803 7.47157 18.5117L8.08605 15.2344C8.13391 14.9792 7.79873 14.8403 7.65209 15.0546L5.76922 17.8065C5.60183 18.0512 5.22657 17.8345 5.35474 17.5672L6.79651 14.5607C6.9088 14.3265 6.62097 14.1057 6.42386 14.2747L3.89291 16.4455C3.6679 16.6385 3.3615 16.3321 3.55448 16.1071L5.72528 13.5761C5.89434 13.379 5.67349 13.0912 5.43933 13.2035L2.43278 14.6453C2.1655 14.7734 1.94884 14.3982 2.19348 14.2308L4.94536 12.3479C5.15968 12.2013 5.02085 11.8661 4.76561 11.9139L1.48834 12.5284C1.19699 12.5831 1.08484 12.1645 1.36447 12.0661L4.50991 10.9597C4.75488 10.8735 4.70753 10.5138 4.4486 10.494L1.12397 10.2393C0.828407 10.2167 0.828405 9.78334 1.12396 9.7607L4.4486 9.50603C4.70753 9.4862 4.75488 9.1265 4.50991 9.04033L1.36447 7.93386C1.08484 7.83549 1.19699 7.41694 1.48834 7.47157L4.76561 8.08605C5.02084 8.13391 5.15968 7.79873 4.94536 7.65209L2.19348 5.76922C1.94884 5.60183 2.16549 5.22657 2.43278 5.35474L5.43933 6.79651C5.67348 6.9088 5.89434 6.62097 5.72528 6.42386L3.55449 3.89291C3.3615 3.6679 3.6679 3.3615 3.8929 3.55448L6.42386 5.72528C6.62097 5.89434 6.9088 5.67349 6.79651 5.43933L5.35474 2.43278C5.22657 2.1655 5.60183 1.94884 5.76922 2.19348L7.65209 4.94536C7.79873 5.15968 8.13391 5.02085 8.08605 4.76561L7.47157 1.48834C7.41694 1.19699 7.83549 1.08484 7.93386 1.36447L9.04033 4.50991C9.1265 4.75488 9.4862 4.70753 9.50603 4.4486L9.7607 1.12397Z" fill="#FEC72F"/>
</svg>
