<svg width="24" height="24" viewBox="0 0 24 24" fill="none" xmlns="http://www.w3.org/2000/svg">
<path d="M22.4598 6.00024C21.6898 6.35024 20.8598 6.58024 19.9998 6.69024C20.8798 6.16024 21.5598 5.32024 21.8798 4.31024C21.0498 4.81024 20.1298 5.16024 19.1598 5.36024C18.3698 4.50024 17.2598 4.00024 15.9998 4.00024C13.6498 4.00024 11.7298 5.92024 11.7298 8.29024C11.7298 8.63024 11.7698 8.96024 11.8398 9.27024C8.2798 9.09024 5.10979 7.38024 2.99979 4.79024C2.62979 5.42024 2.4198 6.16024 2.4198 6.94024C2.4198 8.43024 3.16979 9.75024 4.32979 10.5002C3.61979 10.5002 2.95979 10.3002 2.3798 10.0002V10.0302C2.3798 12.1102 3.8598 13.8502 5.8198 14.2402C5.19052 14.4125 4.52989 14.4364 3.8898 14.3102C4.1614 15.1627 4.69333 15.9087 5.41081 16.4432C6.12829 16.9777 6.99524 17.2739 7.88979 17.2902C6.37343 18.4907 4.49379 19.1396 2.55979 19.1302C2.21979 19.1302 1.87979 19.1102 1.53979 19.0702C3.43979 20.2902 5.69979 21.0002 8.11979 21.0002C15.9998 21.0002 20.3298 14.4602 20.3298 8.79024C20.3298 8.60024 20.3298 8.42024 20.3198 8.23024C21.1598 7.63024 21.8798 6.87024 22.4598 6.00024Z" fill="white"/>
</svg>
