<svg width="23" height="23" viewBox="0 0 23 23" fill="none" xmlns="http://www.w3.org/2000/svg">
<path d="M21.5756 1.42438C21.34 1.18867 21.0458 1.02003 20.7233 0.935826C20.4008 0.851622 20.0617 0.854898 19.7409 0.945315L19.7203 0.951877L1.72872 6.40625C1.36328 6.51221 1.03873 6.72684 0.798164 7.02163C0.557601 7.31642 0.412418 7.67742 0.381897 8.05669C0.351377 8.43595 0.436965 8.81552 0.627292 9.14499C0.81762 9.47446 1.10368 9.73822 1.44747 9.90125L9.35247 13.6512L13.1025 21.5562C13.2522 21.8774 13.4906 22.1489 13.7896 22.339C14.0886 22.529 14.4357 22.6296 14.79 22.6287C14.8434 22.6287 14.8978 22.6287 14.9522 22.6222C15.3311 22.592 15.6917 22.4463 15.9852 22.2047C16.2788 21.9631 16.4912 21.6373 16.5937 21.2712L22.0481 3.27969C22.0508 3.273 22.053 3.26611 22.0547 3.25906C22.1451 2.93827 22.1484 2.59918 22.0641 2.2767C21.9799 1.95422 21.8113 1.66001 21.5756 1.42438ZM14.7187 19.7113L11.5575 13.0372L15.7997 8.795C16.011 8.58366 16.1297 8.29701 16.1297 7.99813C16.1297 7.69924 16.011 7.4126 15.7997 7.20125C15.5883 6.98991 15.3017 6.87118 15.0028 6.87118C14.7039 6.87117 14.4173 6.98991 14.2059 7.20125L9.96372 11.4434L3.28872 8.28125L19.6875 3.3125L14.7187 19.7113Z" fill="white"/>
</svg>
