<svg version="1.1" id="Layer_1" xmlns="http://www.w3.org/2000/svg" xmlns:xlink="http://www.w3.org/1999/xlink" x="0px" y="0px"
	 width="60" height="50" viewBox="0 0 2560 2560" enable-background="new 0 0 2560 2560" xml:space="preserve">
<path fill="#000000" opacity="1.000000" stroke="none" 
	d="
M1240.000000,2562.000000 
	C826.666687,2562.000000 414.333344,2562.000000 2.000000,2562.000000 
	C2.000000,1708.666626 2.000000,855.333313 2.000000,2.000000 
	C855.333313,2.000000 1708.666626,2.000000 2562.000000,2.000000 
	C2562.000000,855.333313 2562.000000,1708.666626 2562.000000,2562.000000 
	C2121.666748,2562.000000 1681.333374,2562.000000 1240.000000,2562.000000 
M1624.705322,886.276184 
	C1609.975098,861.005737 1591.341553,838.868042 1568.718262,820.508728 
	C1518.221558,779.529846 1460.107178,762.109192 1395.276733,765.931946 
	C1379.033203,766.889709 1363.236206,773.542725 1346.648560,769.665710 
	C1172.338379,769.665771 998.028076,769.662781 823.717834,769.694275 
	C821.187744,769.694763 818.657776,770.124573 815.262695,770.432434 
	C815.262695,1061.049683 815.262695,1351.035034 815.262695,1641.123535 
	C849.279053,1641.123535 882.458984,1641.123535 916.610840,1641.123535 
	C916.610840,1507.778687 916.610840,1374.978394 916.610840,1242.408447 
	C1024.617798,1242.408447 1131.646484,1242.408447 1239.438721,1242.408447 
	C1129.733276,1347.690063 1143.928589,1517.277954 1248.418701,1605.631104 
	C1353.609619,1694.576782 1513.107788,1680.034302 1598.820068,1570.013184 
	C1681.493286,1463.892822 1658.576660,1318.902710 1572.843872,1242.614502 
	C1554.982910,1259.790894 1537.102661,1276.985962 1519.448120,1293.963867 
	C1520.249146,1295.341553 1520.372070,1295.670654 1520.592041,1295.910645 
	C1521.491089,1296.891846 1522.400146,1297.865601 1523.340332,1298.807129 
	C1560.069214,1335.593994 1577.534912,1379.661377 1574.415649,1431.857422 
	C1572.580444,1462.567749 1562.519531,1490.183594 1545.238525,1515.359741 
	C1505.421143,1573.367798 1435.929810,1600.394531 1366.958984,1583.813232 
	C1325.079956,1573.745239 1291.884155,1550.451660 1267.680664,1514.988525 
	C1244.578369,1481.138672 1235.039917,1443.662476 1239.558472,1402.595093 
	C1244.194458,1360.459839 1262.298096,1325.522217 1292.904175,1296.411621 
	C1326.912476,1264.065186 1360.334229,1231.102661 1394.078979,1198.478271 
	C1419.930420,1173.485229 1445.903687,1148.618164 1471.783447,1123.654175 
	C1476.980957,1118.640625 1482.001709,1113.443848 1487.404297,1108.030640 
	C1469.665039,1089.549194 1452.687500,1071.861206 1435.494141,1053.948364 
	C1420.114990,1068.648071 1405.417358,1082.644775 1390.777588,1096.702026 
	C1372.048462,1114.686157 1353.389160,1132.743042 1334.621704,1150.686890 
	C1333.038574,1152.200317 1330.883179,1154.083374 1328.961304,1154.120483 
	C1314.155762,1154.405762 1299.342407,1154.277588 1281.987183,1154.277588 
	C1289.976685,1147.140137 1296.043213,1141.720459 1302.165039,1136.251465 
	C1298.682251,1132.133301 1296.220093,1129.044556 1293.564941,1126.131836 
	C1290.872925,1123.178955 1287.742065,1120.602051 1285.228516,1117.514404 
	C1249.547485,1073.680664 1237.513306,1023.971985 1250.480713,969.043640 
	C1261.228394,923.517883 1287.850098,888.838135 1327.526001,864.236450 
	C1335.401367,859.353149 1343.558960,854.650269 1353.883179,856.339172 
	C1353.944214,850.550232 1358.107422,849.577148 1361.907837,848.536194 
	C1384.407715,842.373108 1406.992188,838.964844 1430.622314,841.432007 
	C1471.045166,845.652466 1505.347778,862.295898 1533.736938,890.594238 
	C1561.730713,918.498474 1577.756592,952.988831 1581.404785,992.266113 
	C1585.676025,1038.249634 1573.302612,1080.021851 1543.487061,1115.590088 
	C1531.572266,1129.803467 1517.489502,1142.222534 1504.172485,1155.231934 
	C1485.840698,1173.140381 1467.270386,1190.804321 1448.854004,1208.626587 
	C1417.038574,1239.415283 1385.256348,1270.238403 1353.485596,1301.073486 
	C1351.424316,1303.073975 1349.580566,1305.298584 1347.327026,1307.755249 
	C1364.802246,1325.866211 1381.808960,1343.491333 1398.947510,1361.253296 
	C1401.577393,1359.115356 1403.766357,1357.585449 1405.665161,1355.754639 
	C1435.865479,1326.637085 1466.052002,1297.505127 1496.189697,1268.322754 
	C1510.065674,1254.886475 1523.794067,1241.297729 1537.655640,1227.846313 
	C1547.924194,1217.881348 1558.037598,1207.734863 1568.678223,1198.179443 
	C1597.227905,1172.540894 1620.634033,1143.140015 1636.262329,1107.869751 
	C1656.606567,1061.956177 1662.091675,1014.183411 1653.538818,964.849426 
	C1648.792847,937.474731 1639.112183,911.734436 1624.705322,886.276184 
z"/>
<path fill="#FEFEFE" opacity="1.000000" stroke="none" 
	d="
M1625.135742,886.870789 
	C1639.112183,911.734436 1648.792847,937.474731 1653.538818,964.849426 
	C1662.091675,1014.183411 1656.606567,1061.956177 1636.262329,1107.869751 
	C1620.634033,1143.140015 1597.227905,1172.540894 1568.678223,1198.179443 
	C1558.037598,1207.734863 1547.924194,1217.881348 1537.655640,1227.846313 
	C1523.794067,1241.297729 1510.065674,1254.886475 1496.189697,1268.322754 
	C1466.052002,1297.505127 1435.865479,1326.637085 1405.665161,1355.754639 
	C1403.766357,1357.585449 1401.577393,1359.115356 1398.947510,1361.253296 
	C1381.808960,1343.491333 1364.802246,1325.866211 1347.327026,1307.755249 
	C1349.580566,1305.298584 1351.424316,1303.073975 1353.485596,1301.073486 
	C1385.256348,1270.238403 1417.038574,1239.415283 1448.854004,1208.626587 
	C1467.270386,1190.804321 1485.840698,1173.140381 1504.172485,1155.231934 
	C1517.489502,1142.222534 1531.572266,1129.803467 1543.487061,1115.590088 
	C1573.302612,1080.021851 1585.676025,1038.249634 1581.404785,992.266113 
	C1577.756592,952.988831 1561.730713,918.498474 1533.736938,890.594238 
	C1505.347778,862.295898 1471.045166,845.652466 1430.622314,841.432007 
	C1406.992188,838.964844 1384.407715,842.373108 1361.907837,848.536194 
	C1358.107422,849.577148 1353.944214,850.550232 1353.883179,856.339172 
	C1343.558960,854.650269 1335.401367,859.353149 1327.526001,864.236450 
	C1287.850098,888.838135 1261.228394,923.517883 1250.480713,969.043640 
	C1237.513306,1023.971985 1249.547485,1073.680664 1285.228516,1117.514404 
	C1287.742065,1120.602051 1290.872925,1123.178955 1293.564941,1126.131836 
	C1296.220093,1129.044556 1298.682251,1132.133301 1302.165039,1136.251465 
	C1296.043213,1141.720459 1289.976685,1147.140137 1281.987183,1154.277588 
	C1299.342407,1154.277588 1314.155762,1154.405762 1328.961304,1154.120483 
	C1330.883179,1154.083374 1333.038574,1152.200317 1334.621704,1150.686890 
	C1353.389160,1132.743042 1372.048462,1114.686157 1390.777588,1096.702026 
	C1405.417358,1082.644775 1420.114990,1068.648071 1435.494141,1053.948364 
	C1452.687500,1071.861206 1469.665039,1089.549194 1487.404297,1108.030640 
	C1482.001709,1113.443848 1476.980957,1118.640625 1471.783447,1123.654175 
	C1445.903687,1148.618164 1419.930420,1173.485229 1394.078979,1198.478271 
	C1360.334229,1231.102661 1326.912476,1264.065186 1292.904175,1296.411621 
	C1262.298096,1325.522217 1244.194458,1360.459839 1239.558472,1402.595093 
	C1235.039917,1443.662476 1244.578369,1481.138672 1267.680664,1514.988525 
	C1291.884155,1550.451660 1325.079956,1573.745239 1366.958984,1583.813232 
	C1435.929810,1600.394531 1505.421143,1573.367798 1545.238525,1515.359741 
	C1562.519531,1490.183594 1572.580444,1462.567749 1574.415649,1431.857422 
	C1577.534912,1379.661377 1560.069214,1335.593994 1523.340332,1298.807129 
	C1522.400146,1297.865601 1521.491089,1296.891846 1520.592041,1295.910645 
	C1520.372070,1295.670654 1520.249146,1295.341553 1519.448120,1293.963867 
	C1537.102661,1276.985962 1554.982910,1259.790894 1572.843872,1242.614502 
	C1658.576660,1318.902710 1681.493286,1463.892822 1598.820068,1570.013184 
	C1513.107788,1680.034302 1353.609619,1694.576782 1248.418701,1605.631104 
	C1143.928589,1517.277954 1129.733276,1347.690063 1239.438721,1242.408447 
	C1131.646484,1242.408447 1024.617798,1242.408447 916.610840,1242.408447 
	C916.610840,1374.978394 916.610840,1507.778687 916.610840,1641.123535 
	C882.458984,1641.123535 849.279053,1641.123535 815.262695,1641.123535 
	C815.262695,1351.035034 815.262695,1061.049683 815.262695,770.432434 
	C818.657776,770.124573 821.187744,769.694763 823.717834,769.694275 
	C998.028076,769.662781 1172.338379,769.665771 1346.648560,769.665710 
	C1363.236206,773.542725 1379.033203,766.889709 1395.276733,765.931946 
	C1460.107178,762.109192 1518.221558,779.529846 1568.718262,820.508728 
	C1591.341553,838.868042 1609.975098,861.005737 1625.135742,886.870789 
M949.004089,1154.334106 
	C1038.155518,1154.334106 1127.306885,1154.334106 1216.878174,1154.334106 
	C1152.487915,1053.510254 1154.376343,954.498169 1221.742432,856.830811 
	C1120.117920,856.830811 1019.291992,856.830811 918.532715,856.830811 
	C916.385925,873.732056 915.321655,1140.309814 917.285889,1153.444336 
	C917.870544,1153.692261 918.453003,1154.150635 919.040100,1154.156494 
	C928.362183,1154.250000 937.684875,1154.285400 949.004089,1154.334106 
z"/>
<path fill="#010101" opacity="1.000000" stroke="none" 
	d="
M948.005737,1154.334106 
	C937.684875,1154.285400 928.362183,1154.250000 919.040100,1154.156494 
	C918.453003,1154.150635 917.870544,1153.692261 917.286316,1153.443359 
	C915.321655,1140.309814 916.385925,873.732056 918.532715,856.830811 
	C1019.291992,856.830811 1120.117920,856.830811 1221.742432,856.830811 
	C1154.376343,954.498169 1152.487915,1053.510254 1216.878174,1154.334106 
	C1127.306885,1154.334106 1038.155518,1154.334106 948.005737,1154.334106 
z"/>
</svg>